<svg width="44" height="44" viewBox="0 0 44 44" fill="none" xmlns="http://www.w3.org/2000/svg">
<path fill-rule="evenodd" clip-rule="evenodd" d="M12 9C12 8.44772 12.4477 8 13 8H31C31.5523 8 32 8.44772 32 9V9.85714C32 10.4094 31.5523 10.8571 31 10.8571H13C12.4477 10.8571 12 10.4094 12 9.85714V9ZM12 15.8572C12 15.3049 12.4477 14.8572 13 14.8572H31C31.5523 14.8572 32 15.3049 32 15.8572V16.7143C32 17.2666 31.5523 17.7143 31 17.7143H13C12.4477 17.7143 12 17.2666 12 16.7143V15.8572ZM13 21.7144C12.4477 21.7144 12 22.1621 12 22.7144V23.5715C12 24.1238 12.4477 24.5715 13 24.5715H31C31.5523 24.5715 32 24.1238 32 23.5715V22.7144C32 22.1621 31.5523 21.7144 31 21.7144H13Z" fill="#222529"/>
<path d="M11.29 35.448L10.462 35.16C10.426 35.358 10.345 35.646 10.282 35.826C10.012 36.591 9.643 37.446 9.058 38.283C8.347 37.734 7.303 36.996 6.529 36.501L6.061 37.068C6.925 37.608 7.933 38.346 8.599 38.886C7.708 39.975 6.601 40.974 5.026 41.712L5.647 42.279C7.213 41.46 8.329 40.389 9.175 39.372C9.949 40.038 10.633 40.677 11.299 41.442L11.866 40.821C11.227 40.128 10.453 39.426 9.643 38.76C10.246 37.887 10.696 36.897 10.993 36.105C11.065 35.916 11.191 35.61 11.29 35.448ZM14.602 36.141V36.951C14.881 36.942 15.178 36.924 15.493 36.924H19.345C19.642 36.924 19.984 36.933 20.236 36.951V36.141C19.984 36.168 19.669 36.177 19.345 36.177H15.493C15.196 36.177 14.89 36.159 14.602 36.141ZM13.828 40.596V41.46C14.134 41.442 14.449 41.415 14.773 41.415H20.164C20.407 41.415 20.713 41.433 20.983 41.46V40.596C20.722 40.623 20.434 40.641 20.164 40.641H14.773C14.449 40.641 14.134 40.614 13.828 40.596ZM28.633 37.716L28.084 37.455C28.003 37.491 27.778 37.518 27.634 37.518H24.898C24.673 37.518 24.403 37.491 24.187 37.464V38.22C24.412 38.211 24.646 38.193 24.907 38.193H27.769C27.742 38.706 27.481 40.461 27.346 41.217H24.088C23.818 41.217 23.557 41.199 23.341 41.181V41.928C23.602 41.91 23.809 41.901 24.088 41.901H29.02C29.209 41.901 29.542 41.91 29.704 41.919V41.19C29.515 41.208 29.191 41.217 28.993 41.217H28.111C28.237 40.389 28.498 38.607 28.57 37.995C28.579 37.923 28.606 37.806 28.633 37.716ZM31.918 38.103V38.985C32.197 38.958 32.674 38.94 33.169 38.94H38.11C38.515 38.94 38.893 38.976 39.073 38.985V38.103C38.875 38.121 38.551 38.148 38.101 38.148H33.169C32.665 38.148 32.188 38.121 31.918 38.103Z" fill="#181E42"/>
</svg>
