<svg width="234" height="48" viewBox="0 0 234 48" fill="none" xmlns="http://www.w3.org/2000/svg">
<path fill-rule="evenodd" clip-rule="evenodd" d="M185.689 35.8241C186.079 36.7174 186.961 37.2931 187.934 37.2931H190.742C191.02 37.2931 191.262 37.162 191.414 36.9318C191.565 36.7016 191.584 36.4275 191.477 36.1775L179.981 8.72657C179.787 8.27792 179.359 8 178.87 8C178.381 8 177.951 8.27792 177.757 8.73054L166.266 36.1735C166.154 36.4235 166.178 36.7016 166.329 36.9318C166.481 37.162 166.726 37.2931 167 37.2931H169.812C170.79 37.2931 171.667 36.7134 172.057 35.8201L173.173 33.2155H184.573L185.689 35.8241ZM179.457 21.2728L182.48 28.3241V28.3281H175.271L178.289 21.2768C178.392 21.0386 178.615 20.8917 178.873 20.8917C179.131 20.8917 179.354 21.0386 179.457 21.2728ZM21.4422 30.6863L8.57605 8.41671H0L17.152 38.1107L21.4422 30.6863ZM35.408 30.6863L31.118 38.1107L13.9659 8.41671H22.542L35.408 30.6863ZM40.7636 8.41671H27.8976L34.3286 19.5495L40.7636 8.41671ZM63.2698 38.1107H54.6938L41.8277 15.8412L46.1177 8.41671L63.2698 38.1107ZM49.3383 38.1109H36.4723L42.9033 26.974L49.3383 38.1109ZM94.241 36.8762C94.4676 37.4161 94.968 37.7537 95.5559 37.7537C96.1597 37.7537 96.68 37.3924 96.8905 36.8325L107.393 9.81448C107.512 9.50479 107.469 9.1554 107.278 8.88542C107.087 8.61544 106.777 8.45266 106.448 8.45266H104.001C102.865 8.45266 101.852 9.17526 101.486 10.2433L95.9411 24.7707C95.8696 24.989 95.6829 25.0645 95.532 25.0645C95.3612 25.0645 95.2143 24.9692 95.1388 24.8104L89.1804 12.3714C88.9461 11.8671 88.4536 11.5495 87.8894 11.5495C87.3255 11.5495 86.8328 11.8671 86.5985 12.3714L80.6401 24.8144C80.5646 24.9692 80.4177 25.0645 80.2469 25.0645C80.096 25.0645 79.9092 24.989 79.8338 24.7667L74.2924 10.2512C73.9231 9.17526 72.9101 8.45266 71.7742 8.45266H69.3272C68.9975 8.45266 68.6838 8.61544 68.4971 8.88542C68.3103 9.1554 68.2666 9.50082 68.3818 9.81448L78.8844 36.8285C79.0949 37.3924 79.6312 37.7537 80.219 37.7537C80.807 37.7537 81.3115 37.4161 81.5339 36.8762L87.4923 22.4878C87.5717 22.2932 87.7505 22.2218 87.8894 22.2218C88.0286 22.2218 88.2072 22.2932 88.2868 22.4878L94.241 36.8762ZM157.927 37.3091C157.081 37.3091 156.279 36.9001 155.782 36.2172L149.232 27.2245L149.196 34.6568C149.196 36.1179 148.005 37.3091 146.543 37.3091H144.616C144.06 37.3091 143.607 36.8564 143.607 36.3007V9.45725C143.607 8.90141 144.06 8.44879 144.616 8.44879H146.543C148.005 8.44879 149.196 9.63592 149.196 11.101V25.6443L154.98 18.8034C155.484 18.1999 156.227 17.8545 157.01 17.8545H160.258C160.656 17.8545 161.006 18.0768 161.172 18.4381C161.339 18.7994 161.283 19.2084 161.025 19.5141L155.421 26.1168C155.23 26.3431 155.218 26.6646 155.393 26.9029L161.817 35.705C162.043 36.0147 162.074 36.4158 161.899 36.7532C161.724 37.0907 161.384 37.3051 161.002 37.3051H157.927V37.3091ZM206.028 34.6568C206.028 36.1219 207.219 37.3091 208.682 37.3091H210.619C211.176 37.3091 211.628 36.8564 211.628 36.3007V27.5103C211.628 21.6104 207.763 17.3264 202.437 17.3264C197.109 17.3264 193.244 21.6104 193.244 27.5103V36.3007C193.244 36.8564 193.698 37.3091 194.253 37.3091H196.192C197.654 37.3091 198.846 36.1179 198.846 34.6568V27.5103C198.846 25.3942 199.787 22.9246 202.437 22.9246C205.086 22.9246 206.028 25.3942 206.028 27.5103V34.6568ZM221.776 45.9998C220.315 45.9998 219.124 44.8128 219.124 43.3478V41.4221C219.124 40.8662 219.576 40.4137 220.132 40.4137H223.529C226.026 40.4137 226.775 38.2934 226.996 37.0825C225.917 37.5312 224.751 37.7575 223.529 37.7575C218.219 37.7575 214.365 33.4853 214.365 27.6014V18.8865C214.365 18.3307 214.818 17.8781 215.374 17.8781H217.3C218.761 17.8781 219.954 19.0652 219.954 20.5302V27.6093C219.954 29.7176 220.891 32.1832 223.532 32.1832C226.175 32.1832 227.112 29.7216 227.112 27.6093V20.5302C227.112 19.0691 228.303 17.8781 229.766 17.8781H231.692C232.247 17.8781 232.701 18.3307 232.701 18.8865V35.8437C232.701 41.7279 228.847 45.9998 223.537 45.9998H221.784H221.776ZM127.767 36.3005C127.767 36.8564 128.219 37.3091 128.776 37.3091L128.772 37.313H130.698C132.164 37.313 133.352 36.1219 133.352 34.6608V27.6215C133.352 25.5091 134.289 23.0476 136.931 23.0476H137.86C139.322 23.0476 140.514 21.8565 140.514 20.3954V18.4698C140.514 17.914 140.061 17.4614 139.505 17.4614H136.931C131.62 17.4614 127.767 21.7334 127.767 27.6175V36.3005ZM114.559 37.8173C108.946 37.8173 104.382 33.2554 104.382 27.6454C104.382 22.0352 108.946 17.4733 114.559 17.4733C120.172 17.4733 124.736 22.0352 124.736 27.6454C124.736 33.2554 120.172 37.8173 114.559 37.8173ZM114.559 22.9444C111.965 22.9444 109.856 25.0527 109.856 27.6454C109.856 30.2379 111.965 32.3461 114.559 32.3461C117.153 32.3461 119.262 30.2379 119.262 27.6454C119.262 25.0527 117.153 22.9444 114.559 22.9444Z" fill="white"/>
</svg>
