<svg width="16" height="16" viewBox="0 0 16 16" fill="none" xmlns="http://www.w3.org/2000/svg">
<g clip-path="url(#clip0_3_130)">
<path d="M13.657 2.34298C12.9141 1.60011 12.0322 1.01084 11.0616 0.608808C10.0909 0.206778 9.05063 -0.000136685 8.00005 -0.00012207C6.94946 -0.000107454 5.90916 0.206836 4.93855 0.608893C3.96794 1.01095 3.08602 1.60025 2.34316 2.34314C1.60029 3.08603 1.01102 3.96796 0.608989 4.93859C0.20696 5.90921 4.64047e-05 6.94952 6.10359e-05 8.00011C7.56671e-05 9.0507 0.207019 10.091 0.609075 11.0616C1.01113 12.0322 1.60043 12.9141 2.34331 13.657C3.84364 15.1573 5.87851 16.0001 8.00027 16.0001C10.122 16.0001 12.1569 15.1572 13.6572 13.6569C15.1574 12.1565 16.0003 10.1216 16.0002 7.99988C16.0002 5.87812 15.1573 3.84327 13.657 2.34298ZM12.9887 12.9887C12.3347 13.6491 11.5567 14.1738 10.6994 14.5326C9.84201 14.8915 8.92222 15.0774 7.99281 15.0797C7.0634 15.0819 6.14269 14.9006 5.28359 14.546C4.42449 14.1913 3.64392 13.6705 2.98673 13.0133C2.32953 12.3561 1.80867 11.5755 1.45405 10.7164C1.09944 9.8573 0.918067 8.9366 0.920355 8.00719C0.922642 7.07778 1.10855 6.15797 1.46738 5.30063C1.82622 4.44328 2.35092 3.66528 3.01134 3.01133C3.66529 2.3509 4.44329 1.8262 5.30064 1.46736C6.15798 1.10852 7.07778 0.922619 8.00719 0.920331C8.9366 0.918044 9.8573 1.09942 10.7164 1.45403C11.5755 1.80865 12.3561 2.32951 13.0133 2.98671C13.6705 3.6439 14.5459 5.28358 14.5459 5.28358C14.5459 5.28358 15.0819 7.06339 15.0796 7.9928C15.0774 8.92221 14.8915 9.84202 14.5326 10.6994C14.1738 11.5567 13.6491 12.3347 12.9887 12.9887Z" fill="#999999"/>
<path d="M11.6894 4.22995C11.5137 4.07247 11.2255 4.1109 11.046 4.3131L8.51086 7.02175C8.34861 6.93352 8.16631 6.88875 7.98165 6.89178C7.79699 6.89482 7.61625 6.94556 7.457 7.03908L5.79967 5.88506C5.58582 5.72758 5.26424 5.80034 5.08408 6.04727C4.90393 6.2942 4.92975 6.62144 5.14424 6.77892L6.90456 8.13671C6.93751 8.41759 7.0768 8.67518 7.2938 8.85655C7.5108 9.03791 7.78902 9.12927 8.0713 9.11185C8.35357 9.09443 8.61845 8.96955 8.8115 8.76288C9.00455 8.55621 9.11111 8.28345 9.10928 8.00065C9.10928 7.97702 9.10393 7.95498 9.10235 7.93135L11.6822 4.87971C11.862 4.67688 11.8649 4.38586 11.6894 4.22995Z" fill="#999999"/>
</g>
<defs>
<clipPath id="clip0_3_130">
<rect width="16" height="16" fill="#FEFEFE"/>
</clipPath>
</defs>
</svg>
