<svg width="15" height="16" viewBox="0 0 15 16" fill="none" xmlns="http://www.w3.org/2000/svg">
<g clip-path="url(#clip0_1_3420)">
<path d="M4.57144 6.95654H2.98145V8.54686H4.57144V6.95654Z" fill="#999999"/>
<path d="M11.528 6.95654H9.93799V8.54686H11.528V6.95654Z" fill="#999999"/>
<path d="M9.20905 6.95654H7.61905V8.54686H9.20905V6.95654Z" fill="#999999"/>
<path d="M4.57144 9.44092H2.98145V11.0312H4.57144V9.44092Z" fill="#999999"/>
<path d="M9.20905 9.44092H7.61905V11.0312H9.20905V9.44092Z" fill="#999999"/>
<path d="M6.89032 9.44092H5.30032V11.0312H6.89032V9.44092Z" fill="#999999"/>
<path d="M11.528 11.9253H9.93799V13.5156H11.528V11.9253Z" fill="#999999"/>
<path d="M9.20905 11.9253H7.61905V13.5156H9.20905V11.9253Z" fill="#999999"/>
<path d="M6.89032 11.9253H5.30032V13.5156H6.89032V11.9253Z" fill="#999999"/>
<path d="M12.9822 1.72021H11.6891V2.9599C11.6884 3.07076 11.6659 3.1804 11.6229 3.28256C11.5798 3.38472 11.5171 3.47739 11.4382 3.55529C11.3593 3.63318 11.2658 3.69477 11.1631 3.73652C11.0605 3.77828 10.9505 3.79939 10.8397 3.79865H9.15219C9.04133 3.79939 8.93142 3.77828 8.82872 3.73652C8.72603 3.69477 8.63257 3.63318 8.55369 3.55529C8.47481 3.47739 8.41205 3.38472 8.36901 3.28256C8.32596 3.1804 8.30347 3.07076 8.30281 2.9599V1.72021H6.20531V2.94803C6.20391 3.17466 6.11268 3.39148 5.95164 3.55094C5.79059 3.7104 5.57288 3.79948 5.34625 3.79865H3.67687C3.45011 3.79973 3.23219 3.71075 3.07099 3.55125C2.9098 3.39176 2.81851 3.17479 2.81719 2.94803V1.72021H1.525C0.684063 1.72021 0 2.39803 0 3.23115V14.489C0 15.3221 0.684063 15.9999 1.525 15.9999H12.9822C13.8241 15.9999 14.5094 15.3221 14.5094 14.489V3.23115C14.5094 2.39803 13.8241 1.72021 12.9822 1.72021ZM13.4162 14.4596C13.4162 14.7271 13.2366 14.9068 12.9691 14.9068H1.54031C1.27281 14.9068 1.09312 14.7271 1.09312 14.4596V5.56522H13.4162V14.4596Z" fill="#999999"/>
<path d="M3.67684 3.20344H5.34559C5.4133 3.20352 5.47829 3.17677 5.52632 3.12903C5.57435 3.0813 5.6015 3.01647 5.60184 2.94875V0.640316C5.60093 0.4698 5.5324 0.30661 5.4113 0.186564C5.2902 0.0665172 5.12642 -0.000578105 4.9559 3.75309e-06H4.06684C3.89634 -0.000495475 3.73261 0.0666265 3.61152 0.186655C3.49044 0.306684 3.42189 0.469826 3.4209 0.640316V2.94875C3.42123 3.01642 3.44834 3.08119 3.4963 3.12892C3.54426 3.17665 3.60917 3.20344 3.67684 3.20344Z" fill="#999999"/>
<path d="M9.15104 3.20344H10.8385C10.9036 3.20352 10.966 3.17782 11.0122 3.13196C11.0584 3.0861 11.0845 3.02382 11.0848 2.95875V0.630628C11.0839 0.462898 11.0165 0.302362 10.8975 0.184167C10.7785 0.0659735 10.6175 -0.000247663 10.4498 2.80383e-06H9.54072C9.37283 -0.000496146 9.21159 0.0656151 9.09237 0.183836C8.97316 0.302057 8.90569 0.462735 8.90479 0.630628V2.95875C8.90512 3.02382 8.93122 3.0861 8.97737 3.13196C9.02352 3.17782 9.08597 3.20352 9.15104 3.20344Z" fill="#999999"/>
</g>
<defs>
<clipPath id="clip0_1_3420">
<rect width="14.5091" height="16" fill="white"/>
</clipPath>
</defs>
</svg>
