<svg width="407" height="80" viewBox="0 0 407 80" fill="none" xmlns="http://www.w3.org/2000/svg">
<path d="M50.1304 41.4007H67.8185L58.9744 26.0874L50.1304 41.4007Z" fill="#001414"/>
<path d="M75.1751 41.4086H86.9672L63.3831 0.578613L57.5034 10.782L75.1751 41.4086Z" fill="#001414"/>
<path d="M56.0318 0.578613H38.3438L47.1878 15.8919L56.0318 0.578613Z" fill="#00A497"/>
<path d="M42.7794 41.4086L48.6754 31.2052L30.9874 0.578613H19.1953L42.7794 41.4086Z" fill="#00A497"/>
<path d="M29.4801 31.2052L11.792 0.578613H0L23.5841 41.4086L29.4801 31.2052Z" fill="#00A497"/>
<path d="M331.135 40.3222V13.7573H341.126C343.943 13.7573 346.252 14.5435 348.037 16.1157C349.822 17.688 350.707 19.768 350.707 22.3393C350.707 24.9106 349.806 26.9742 348.021 28.5793C346.236 30.1843 343.943 30.9868 341.126 30.9868H336.573V40.3222H331.135V40.3222ZM336.573 26.1881H341.126C342.37 26.1881 343.337 25.8442 344.057 25.1399C344.778 24.4357 345.122 23.5021 345.122 22.3393C345.122 21.1765 344.762 20.2921 344.057 19.6042C343.353 18.9 342.37 18.556 341.126 18.556H336.573V26.2045V26.1881Z" fill="#001414"/>
<path d="M355.028 40.3222V13.7573H365.019C367.836 13.7573 370.145 14.5435 371.93 16.1157C373.715 17.688 374.6 19.768 374.6 22.3393C374.6 24.0099 374.19 25.5166 373.355 26.8268C372.52 28.1371 371.373 29.1525 369.916 29.8731L377.45 40.3222H371.341L364.462 30.9541H360.482V40.3222H355.045H355.028ZM360.466 26.1554H365.019C366.28 26.1554 367.246 25.8114 367.967 25.1235C368.671 24.4357 369.031 23.5021 369.031 22.3393C369.031 21.1765 368.671 20.2921 367.967 19.6042C367.263 18.9 366.28 18.556 365.035 18.556H360.482V26.1554H360.466Z" fill="#001414"/>
<path d="M378.091 27.0421C378.091 24.4871 378.713 22.1615 379.974 20.0487C381.235 17.936 382.939 16.2818 385.101 15.0862C387.262 13.8906 389.621 13.2847 392.192 13.2847C394.763 13.2847 397.122 13.8906 399.284 15.0862C401.446 16.2818 403.165 17.936 404.426 20.0487C405.687 22.1615 406.326 24.4871 406.326 27.0421C406.326 28.9583 405.95 30.7598 405.213 32.4795C404.459 34.1828 403.46 35.6568 402.199 36.8688C400.938 38.0807 399.431 39.047 397.695 39.7513C395.959 40.4555 394.125 40.8158 392.192 40.8158C390.26 40.8158 388.442 40.4555 386.706 39.7513C384.97 39.047 383.479 38.0807 382.218 36.8688C380.957 35.6568 379.958 34.1828 379.221 32.4795C378.484 30.7762 378.107 28.9583 378.107 27.0421H378.091ZM383.676 27.0421C383.676 29.6134 384.478 31.7097 386.083 33.3475C387.688 34.9853 389.735 35.7878 392.225 35.7878C394.714 35.7878 396.712 34.9689 398.334 33.3311C399.955 31.6934 400.758 29.597 400.758 27.0421C400.758 24.4871 399.955 22.4071 398.334 20.7693C396.712 19.1316 394.682 18.3127 392.225 18.3127C389.768 18.3127 387.705 19.1316 386.1 20.753C384.495 22.3744 383.676 24.4707 383.676 27.0257V27.0421Z" fill="#001414"/>
<path d="M128.077 40.9121C127.275 40.9121 126.587 40.4535 126.275 39.7001L118.087 19.9157C117.972 19.6537 117.726 19.5554 117.546 19.5554C117.366 19.5554 117.104 19.6537 117.006 19.9157L108.817 39.7001C108.506 40.4371 107.818 40.9121 107.015 40.9121C106.213 40.9121 105.476 40.4208 105.181 39.6346L90.7192 2.48967C90.5554 2.06385 90.6209 1.58889 90.883 1.2122C91.145 0.835511 91.5708 0.622599 92.0294 0.622599H95.3869C96.9428 0.622599 98.3349 1.62165 98.8426 3.09565L106.458 23.0603C106.557 23.3714 106.819 23.4697 107.032 23.4697C107.261 23.4697 107.474 23.3387 107.572 23.1258L115.761 6.01091C116.088 5.32304 116.76 4.88084 117.53 4.88084C118.299 4.88084 118.987 5.32304 119.299 6.01091L127.487 23.1094C127.586 23.3223 127.799 23.4533 128.028 23.4533C128.241 23.4533 128.486 23.3551 128.585 23.0439L136.2 3.0629C136.708 1.58889 138.1 0.589844 139.656 0.589844H143.014C143.472 0.589844 143.898 0.819134 144.16 1.17945C144.422 1.53976 144.488 2.03109 144.324 2.45692L129.879 39.6183C129.584 40.388 128.88 40.8793 128.044 40.8793L128.077 40.9121Z" fill="#001414"/>
<path d="M213.814 40.2995C212.651 40.2995 211.554 39.7427 210.866 38.7927L201.858 26.4275L201.809 36.6472C201.809 38.6617 200.171 40.2995 198.157 40.2995H195.503C194.734 40.2995 194.111 39.6771 194.111 38.9074V1.99173C194.111 1.22197 194.734 0.599609 195.503 0.599609H198.157C200.171 0.599609 201.809 2.23739 201.809 4.25187V24.2656L209.769 14.8647C210.456 14.0294 211.488 13.5545 212.569 13.5545H217.04C217.581 13.5545 218.072 13.8657 218.301 14.357C218.531 14.8483 218.449 15.4216 218.105 15.831L210.407 24.9043C210.145 25.2155 210.129 25.6577 210.375 25.9853L219.202 38.0885C219.513 38.5143 219.563 39.0712 219.317 39.5297C219.071 39.9883 218.613 40.2831 218.088 40.2831H213.863L213.814 40.2995Z" fill="#001414"/>
<path d="M283.582 40.3043C281.567 40.3043 279.929 38.6665 279.929 36.652V26.8253C279.929 23.9101 278.636 20.5199 275 20.5199C271.364 20.5199 270.07 23.9101 270.07 26.8253V36.652C270.07 38.6665 268.432 40.3043 266.418 40.3043H263.748C262.978 40.3043 262.356 39.6819 262.356 38.9122V26.8253C262.356 18.7183 267.662 12.8223 274.983 12.8223C282.304 12.8223 287.611 18.7183 287.611 26.8253V38.9122C287.611 39.6819 286.988 40.3043 286.218 40.3043H283.549H283.582Z" fill="#001414"/>
<path d="M301.58 52.258C299.566 52.258 297.928 50.6202 297.928 48.6057V45.9525C297.928 45.1827 298.55 44.5604 299.32 44.5604H303.988C307.427 44.5604 308.442 41.6451 308.754 39.9746C307.263 40.5969 305.675 40.9081 303.988 40.9081C296.683 40.9081 291.393 35.0285 291.393 26.9378V14.9492C291.393 14.1795 292.015 13.5571 292.785 13.5571H295.438C297.453 13.5571 299.091 15.1949 299.091 17.2094V26.9378C299.091 29.8367 300.384 33.2269 304.004 33.2269C307.624 33.2269 308.917 29.8367 308.917 26.9378V17.2094C308.917 15.1949 310.555 13.5571 312.57 13.5571H315.223C315.993 13.5571 316.615 14.1795 316.615 14.9492V38.2713C316.615 46.3619 311.325 52.2416 304.02 52.2416H301.613L301.58 52.258Z" fill="#001414"/>
<path d="M173.736 40.3014C172.966 40.3014 172.344 39.679 172.344 38.9093V26.9698C172.344 18.8792 177.634 12.9995 184.938 12.9995H188.476C189.246 12.9995 189.868 13.6219 189.868 14.3916V17.0448C189.868 19.0593 188.23 20.6971 186.216 20.6971H184.938C181.302 20.6971 180.025 24.0873 180.025 26.9862V36.6655C180.025 38.68 178.387 40.3178 176.373 40.3178H173.719L173.736 40.3014Z" fill="#001414"/>
<path d="M154.199 41.0105C146.485 41.0105 140.212 34.7377 140.212 27.0238C140.212 19.3098 146.485 13.0371 154.199 13.0371C161.913 13.0371 168.186 19.3098 168.186 27.0238C168.186 34.7377 161.913 41.0105 154.199 41.0105ZM154.199 20.5545C150.629 20.5545 147.73 23.4534 147.73 27.0238C147.73 30.5942 150.629 33.493 154.199 33.493C157.769 33.493 160.668 30.5942 160.668 27.0238C160.668 23.4534 157.769 20.5545 154.199 20.5545V20.5545Z" fill="#001414"/>
<path d="M255.05 40.2895C253.707 40.2895 252.495 39.5034 251.971 38.275L250.432 34.6883H234.758L233.219 38.275C232.678 39.5034 231.466 40.3059 230.14 40.3059H226.275C225.898 40.3059 225.554 40.1257 225.357 39.8145C225.144 39.5034 225.112 39.1103 225.275 38.7664L241.064 0.999049C241.326 0.37669 241.915 0 242.587 0C243.258 0 243.848 0.37669 244.11 0.999049L259.915 38.75C260.062 39.0939 260.029 39.4706 259.833 39.7818C259.62 40.093 259.292 40.2731 258.916 40.2731H255.05V40.2895ZM247.549 27.957L243.389 18.2613C243.242 17.9337 242.947 17.7372 242.587 17.7372C242.227 17.7372 241.932 17.9337 241.784 18.2613L237.624 27.957H247.533H247.549Z" fill="#001414"/>
<path d="M289.375 66.9857C288.68 66.9857 288.01 67.3695 287.466 67.8491H287.419L287.303 67.1539H285.915V76.4502H287.605V74.4107L287.558 73.3068C288.056 73.7746 288.6 74.0388 289.167 74.0388C290.592 74.0388 291.923 72.7075 291.923 70.4039C291.923 68.3407 290.973 66.9857 289.377 66.9857H289.375ZM288.785 72.5879C288.437 72.5879 288.021 72.4564 287.604 72.0845V69.133C288.055 68.6652 288.448 68.4378 288.889 68.4378C289.78 68.4378 290.173 69.146 290.173 70.4287C290.173 71.8926 289.571 72.5879 288.785 72.5879ZM294.938 68.3418H294.891L294.776 67.1539H293.387V73.8718H295.078V69.865C295.448 68.8938 296.062 68.5456 296.571 68.5456C296.838 68.5456 297.023 68.5811 297.242 68.6533L297.543 67.1302C297.346 67.0461 297.138 66.9857 296.779 66.9857C296.109 66.9857 295.414 67.4654 294.939 68.3407L294.938 68.3418ZM301.108 66.9869C299.487 66.9869 297.994 68.2826 297.994 70.5259C297.994 72.7691 299.488 74.0411 301.108 74.0411C302.727 74.0411 304.221 72.7454 304.221 70.5259C304.221 68.3063 302.727 66.9869 301.108 66.9869ZM301.108 72.6009C300.228 72.6009 299.731 71.7849 299.731 70.5259C299.731 69.2669 300.228 68.4271 301.108 68.4271C301.988 68.4271 302.485 69.255 302.485 70.5259C302.485 71.7967 301.988 72.6009 301.108 72.6009ZM309.599 66.6636L309.669 67.7189C309.206 67.2747 308.754 66.9869 308.025 66.9869C306.625 66.9869 305.305 68.33 305.305 70.5259C305.305 72.7217 306.347 74.0411 307.955 74.0411C308.626 74.0411 309.275 73.6574 309.75 73.1777H309.784L309.923 73.8729H311.301V64.2983H309.599V66.6612V66.6636ZM309.599 71.8938C309.229 72.3972 308.847 72.5891 308.395 72.5891C307.539 72.5891 307.052 71.8938 307.052 70.5022C307.052 69.1105 307.666 68.439 308.395 68.439C308.8 68.439 309.206 68.5704 309.599 68.9423V71.8938ZM316.985 71.6901C316.545 72.2894 316.197 72.5299 315.664 72.5299C315.039 72.5299 314.762 72.1698 314.762 71.1263V67.1563H313.06V71.3549C313.06 73.0344 313.662 74.0423 315.051 74.0423C315.942 74.0423 316.567 73.5982 317.123 72.9148H317.17L317.297 73.8741H318.685V67.1563H316.983V71.6901H316.985ZM323.454 72.6021C322.516 72.6021 321.844 71.7861 321.844 70.527C321.844 69.268 322.515 68.4283 323.499 68.4283C323.87 68.4283 324.17 68.5846 324.495 68.8725L325.305 67.7331C324.831 67.3138 324.217 66.9893 323.418 66.9893C321.659 66.9893 320.107 68.285 320.107 70.5282C320.107 72.7715 321.473 74.0435 323.267 74.0435C323.985 74.0435 324.773 73.7912 325.385 73.2275L324.714 72.0644C324.356 72.3759 323.915 72.6045 323.453 72.6045L323.454 72.6021ZM329.072 66.9881C327.521 66.9881 326.052 68.343 326.052 70.527C326.052 72.7111 327.464 74.0423 329.27 74.0423C330.081 74.0423 330.902 73.7545 331.539 73.2985L330.961 72.2184C330.498 72.518 330.035 72.6862 329.502 72.6862C328.541 72.6862 327.847 72.1106 327.708 71.0067H331.701C331.747 70.8504 331.782 70.527 331.782 70.2025C331.782 68.343 330.857 66.9881 329.074 66.9881H329.072ZM327.684 69.8425C327.811 68.8582 328.413 68.3549 329.096 68.3549C329.93 68.3549 330.324 68.9305 330.324 69.8425H327.685H327.684ZM337.169 66.6636L337.239 67.7189C336.776 67.2747 336.325 66.9869 335.595 66.9869C334.195 66.9869 332.875 68.33 332.875 70.5259C332.875 72.7217 333.917 74.0411 335.526 74.0411C336.197 74.0411 336.846 73.6574 337.32 73.1777H337.354L337.494 73.8729H338.871V64.2983H337.169V66.6612V66.6636ZM337.169 71.8938C336.799 72.3972 336.417 72.5891 335.966 72.5891C335.11 72.5891 334.623 71.8938 334.623 70.5022C334.623 69.1105 335.236 68.439 335.966 68.439C336.37 68.439 336.776 68.5704 337.169 68.9423V71.8938ZM346.783 66.9881C346.146 66.9881 345.498 67.3114 344.988 67.7923L345.022 66.7121V64.3007H343.332V73.8729H344.664L344.814 73.1647H344.849C345.381 73.7285 346.006 74.0399 346.585 74.0399C348.009 74.0399 349.339 72.7087 349.339 70.3932C349.339 68.3418 348.378 66.9869 346.781 66.9869L346.783 66.9881ZM346.204 72.5903C345.857 72.5903 345.428 72.4588 345.024 72.0869V69.1354C345.475 68.6676 345.868 68.4402 346.308 68.4402C347.2 68.4402 347.593 69.1484 347.593 70.4311C347.593 71.895 346.991 72.5903 346.204 72.5903ZM354.529 67.1563L353.638 70.2748C353.487 70.8989 353.326 71.5468 353.175 72.1698H353.117C352.932 71.5219 352.769 70.8741 352.573 70.2748L351.543 67.1563H349.83L352.353 73.7533L352.238 74.1489C352.053 74.7364 351.682 75.1687 351.023 75.1687C350.872 75.1687 350.687 75.1213 350.571 75.0846L350.259 76.4395C350.514 76.5236 350.769 76.571 351.151 76.571C352.598 76.571 353.293 75.659 353.86 74.0755L356.163 67.1539H354.531L354.529 67.1563Z" fill="#333333"/>
<path d="M380.665 78.5742C380.665 79.3618 378.499 79.9996 375.825 79.9996C373.152 79.9996 370.969 79.3618 370.969 78.5742C370.969 77.7866 373.142 77.1523 375.812 77.1523C378.482 77.1523 380.665 77.7901 380.665 78.5742Z" fill="#F2A591"/>
<path d="M368.146 62.23L358.877 75.905H362.205L363.36 74.0789H368.112L368.012 75.9085H371.209L371.357 62.23H368.146ZM364.858 71.6986L368.525 65.8892H368.566L368.23 71.6986H364.858Z" fill="#D00000"/>
<path d="M382.121 75.9421H380.778L381.057 74.6353H382.4L382.121 75.9421Z" fill="#D00000"/>
<path d="M384.346 70.6329H386.485L386.321 71.309H386.344C386.811 70.7967 387.463 70.504 388.145 70.5005C389.152 70.5005 390.042 70.8908 390.042 71.9363C390.022 72.2778 389.968 72.6159 389.884 72.9469L389.179 75.9405H386.962L387.537 73.501C387.617 73.2118 387.674 72.9191 387.711 72.6193C387.711 72.2709 387.443 72.1105 387.083 72.1105C386.378 72.1105 386.14 72.5706 386.009 73.1212L385.357 75.9336H383.137L384.346 70.6329Z" fill="#D00000"/>
<path d="M392.53 72.6814C392.658 72.1343 393.145 71.7614 393.685 71.7893C394.243 71.7893 394.525 72.1064 394.525 72.5037C394.525 72.5629 394.515 72.6222 394.505 72.6814H392.53ZM394.119 74.3856C393.91 74.6609 393.585 74.8073 393.249 74.7724C392.554 74.7724 392.339 74.3019 392.339 73.7269H396.49C396.574 73.4272 396.614 73.1171 396.604 72.8069C396.604 71.1411 395.042 70.4824 393.756 70.4824C392.309 70.4824 390.27 71.284 390.27 73.713C390.27 75.0024 391.1 76.0584 393.158 76.0584C395.67 76.0584 396.107 74.7376 396.251 74.3786L394.119 74.3856Z" fill="#D00000"/>
<path d="M400.557 70.6322H401.756L401.443 71.8833H400.268L399.871 73.5909C399.818 73.7617 399.784 73.9394 399.771 74.1206C399.771 74.2983 399.871 74.4377 400.221 74.4377C400.57 74.4377 400.775 74.4168 400.95 74.4064L400.614 75.8701C400.224 75.9293 399.821 75.9816 399.418 76.0025C398.941 76.0408 398.464 75.9676 398.018 75.7864C397.648 75.5948 397.41 75.201 397.406 74.7723C397.417 74.5249 397.46 74.2809 397.531 74.0439L398.048 71.8693H397.061L397.376 70.6182H398.337L398.73 69.0151H400.95L400.557 70.6322Z" fill="#D00000"/>
<path d="M382.593 62.8732C383.08 60.3989 381.686 58.395 379.486 58.395C377.287 58.395 375.1 60.3989 374.613 62.8732C374.311 64.4136 374.738 65.7692 375.621 66.5742C373.975 67.5152 372.807 69.1496 372.407 71.0524C371.846 73.8857 373.448 76.1858 375.973 76.1858C378.499 76.1858 381.011 73.8857 381.558 71.0524C381.935 69.1287 381.323 67.4559 380.104 66.5742C381.377 65.7344 382.27 64.4031 382.593 62.8732ZM379.258 71.0524C378.979 72.4464 377.747 73.586 376.501 73.586C375.255 73.586 374.462 72.4499 374.738 71.0524C375.013 69.6549 376.242 68.5014 377.495 68.5014C378.747 68.5014 379.533 69.6515 379.258 71.0524ZM380.309 62.8732C380.097 63.9187 379.171 64.7864 378.227 64.7864C377.283 64.7864 376.685 63.9326 376.884 62.8732C377.082 61.8138 378.022 60.96 378.979 60.96C379.936 60.96 380.517 61.8138 380.309 62.8732Z" fill="#D00000"/>
<path d="M403.21 69.0283C402.804 69.0562 402.498 69.4221 402.525 69.8403C402.549 70.2202 402.841 70.5234 403.21 70.5513C403.617 70.5234 403.922 70.1574 403.895 69.7393C403.872 69.3594 403.58 69.0562 403.21 69.0283ZM402.874 70.269H403.042V69.8961H403.23C403.361 69.8961 403.368 69.9484 403.368 70.0773C403.368 70.14 403.371 70.2028 403.385 70.2655H403.546C403.452 70.3491 403.334 70.3909 403.21 70.3909C403.089 70.3909 402.968 70.3526 402.874 70.269ZM403.042 69.7393V69.4918H403.264C403.375 69.4918 403.392 69.565 403.392 69.6138C403.392 69.6626 403.345 69.7393 403.254 69.7393H403.042ZM403.57 70.2446V70.0634C403.57 69.8926 403.526 69.8647 403.462 69.8299C403.546 69.7915 403.6 69.7009 403.593 69.6033C403.593 69.4605 403.486 69.342 403.348 69.342C403.341 69.342 403.331 69.342 403.324 69.342H402.874V70.2725C402.74 70.154 402.666 69.9762 402.669 69.795C402.646 69.4849 402.868 69.2165 403.167 69.1921C403.465 69.1677 403.724 69.3977 403.748 69.7079C403.748 69.7358 403.748 69.7671 403.748 69.795C403.748 69.9623 403.684 70.1261 403.57 70.2446Z" fill="#D00000"/>
</svg>
