<svg width="15" height="16" viewBox="0 0 15 16" fill="none" xmlns="http://www.w3.org/2000/svg">
<g clip-path="url(#clip0_1_3406)">
<path d="M14.2499 9.68446C14.1184 9.38358 13.9415 9.10462 13.7255 8.85728C13.6265 8.74103 13.524 8.63353 13.4199 8.52697C13.4344 8.46505 13.4338 8.40057 13.4183 8.33892C13.4027 8.27726 13.3726 8.22023 13.3305 8.17259H13.3324C13.3211 8.14242 13.3139 8.1109 13.3108 8.07884C13.3024 8.0007 13.2985 7.92212 13.2993 7.84353C13.2993 7.6004 13.3243 7.26134 13.3243 6.87165C13.3243 6.37947 13.2836 5.8004 13.0849 5.19509C12.8861 4.58978 12.5277 3.96165 11.919 3.38947C11.1977 2.71072 10.3549 2.33759 9.53958 2.13728C9.51302 2.13103 9.48708 2.12603 9.46177 2.11978C9.65382 1.82897 9.72641 1.47533 9.66445 1.13238C9.60248 0.789434 9.41074 0.483557 9.12906 0.278339C8.84739 0.0731204 8.49747 -0.0156507 8.15203 0.0304794C7.8066 0.0766094 7.49223 0.254092 7.27427 0.526031C7.05632 0.254092 6.74195 0.0766094 6.39652 0.0304794C6.05108 -0.0156507 5.70116 0.0731204 5.41948 0.278339C5.13781 0.483557 4.94606 0.789434 4.8841 1.13238C4.82214 1.47533 4.89473 1.82897 5.08678 2.11978C5.06084 2.12603 5.03553 2.13103 5.00928 2.13728C4.19365 2.33759 3.3499 2.71072 2.62959 3.38947C2.02022 3.96165 1.66084 4.59009 1.46334 5.19509C1.26584 5.80009 1.22459 6.37947 1.22459 6.87165C1.22459 7.26134 1.24928 7.59947 1.24928 7.84259C1.25146 7.93676 1.24476 8.03093 1.22928 8.12384C1.2269 8.14026 1.22249 8.15632 1.21615 8.17165C1.17419 8.21944 1.14424 8.27655 1.12881 8.33824C1.11337 8.39994 1.11289 8.46442 1.1274 8.52634C1.09303 8.5604 1.05928 8.5954 1.02584 8.63072C0.750217 8.92134 0.485842 9.24446 0.297717 9.68353C0.109592 10.1226 0.000842524 10.6673 0.00146752 11.3973C0.00146752 12.1473 0.19178 12.8232 0.549592 13.4042C1.08678 14.2763 1.98709 14.9248 3.13303 15.3538C4.27896 15.7829 5.68678 15.9998 7.27334 15.9998C9.38865 15.9998 11.1821 15.6185 12.4746 14.8523C13.1199 14.4685 13.6405 13.986 13.998 13.406C14.3555 12.826 14.5468 12.1482 14.5461 11.3992C14.5468 10.6682 14.4383 10.1248 14.2499 9.68446ZM8.33584 0.814156C8.44336 0.814032 8.5485 0.845807 8.63796 0.905459C8.72741 0.965111 8.79716 1.04996 8.83838 1.14927C8.8796 1.24857 8.89043 1.35788 8.86951 1.46334C8.84859 1.56881 8.79685 1.6657 8.72084 1.74175C8.64483 1.8178 8.54797 1.8696 8.44252 1.89058C8.33706 1.91156 8.22776 1.90079 8.12842 1.85963C8.02909 1.81847 7.94421 1.74877 7.8845 1.65935C7.8248 1.56993 7.79296 1.4648 7.79302 1.35728C7.79352 1.21344 7.85086 1.07563 7.95254 0.973889C8.05422 0.872149 8.192 0.814732 8.33584 0.814156ZM6.20834 0.814156C6.31586 0.814032 6.421 0.845807 6.51046 0.905459C6.59991 0.965111 6.66967 1.04996 6.71088 1.14927C6.7521 1.24857 6.76293 1.35788 6.74201 1.46334C6.72109 1.56881 6.66935 1.6657 6.59334 1.74175C6.51733 1.8178 6.42047 1.8696 6.31502 1.89058C6.20957 1.91156 6.10026 1.90079 6.00093 1.85963C5.9016 1.81847 5.81671 1.74877 5.757 1.65935C5.6973 1.56993 5.66546 1.4648 5.66553 1.35728C5.66602 1.21301 5.7237 1.07482 5.82592 0.973009C5.92815 0.871197 6.06657 0.814072 6.21084 0.814156H6.20834ZM12.494 7.49478C12.2568 7.16139 12.0638 6.79868 11.9199 6.41572C11.538 5.41978 10.9799 4.71665 10.204 4.2879C9.42802 3.85915 8.46709 3.70103 7.27334 3.70103C6.07959 3.70103 5.11709 3.85728 4.34271 4.2879C3.56834 4.71853 3.00865 5.41978 2.62678 6.41572C2.48206 6.79902 2.28916 7.16236 2.05272 7.49697C2.0449 7.29853 2.03647 7.09259 2.03709 6.86978C2.03709 6.42353 2.07522 5.93634 2.23584 5.44697C2.39647 4.95759 2.67678 4.46228 3.18647 3.98134C3.78303 3.41884 4.48428 3.10384 5.20271 2.92666C5.92115 2.74947 6.64834 2.71572 7.27334 2.71572C7.89834 2.71572 8.62677 2.74978 9.34427 2.92666C10.0618 3.10353 10.763 3.41884 11.3602 3.98134C11.8702 4.46228 12.149 4.95728 12.3111 5.44697C12.4733 5.93665 12.5096 6.42322 12.5096 6.86978C12.5102 7.09165 12.5018 7.29759 12.494 7.49478Z" fill="#999999"/>
<path d="M10.1349 9.31567H8.16301L7.95144 9.64536V10.4344H10.1349V11.555H7.95144V13.2469H6.59488V11.555H4.41113V10.4344H6.59457V9.64661L6.38238 9.31567H4.41113V8.35911H5.76676L4.61395 6.56567H5.76363L7.27301 8.91317L8.78238 6.56567H9.93144L8.77957 8.35911H10.1349V9.31567Z" fill="white"/>
</g>
<defs>
<clipPath id="clip0_1_3406">
<rect width="14.5459" height="16" fill="white"/>
</clipPath>
</defs>
</svg>
