<?xml version="1.0" encoding="UTF-8"?><svg id="_レイヤー_2" xmlns="http://www.w3.org/2000/svg" viewBox="0 0 275.96 153.56"><defs><style>.cls-1{stroke:#001414;stroke-miterlimit:20;stroke-width:.15px;}.cls-1,.cls-2{fill:#001414;}.cls-3{fill:#00a497;}</style></defs><g id="_レイヤー_1-2"><g><g><g><polygon class="cls-2" points="146.81 84 183.18 84 164.99 52.5 146.81 84"/><polygon class="cls-2" points="198.32 84 222.57 84 174.07 0 161.95 21 198.32 84"/></g><g><polygon class="cls-3" points="158.93 0 122.56 0 140.74 31.5 158.93 0"/><polygon class="cls-3" points="131.67 84 143.79 63 107.42 0 83.17 0 131.67 84"/><polygon class="cls-3" points="104.31 63 67.93 0 43.68 0 92.18 84 104.31 63"/></g></g><g><path class="cls-2" d="m1.14,108.22h2.95c1.37,0,2.59.87,3.04,2.17l6.68,17.53c.09.27.32.36.5.36.21,0,.39-.11.47-.3l7.19-15.02c.28-.61.88-.99,1.56-.99s1.27.38,1.56.99l7.19,15.02c.09.19.27.31.47.31.18,0,.41-.09.5-.35l6.69-17.54c.44-1.29,1.66-2.16,3.03-2.16h2.95c.4,0,.77.2,1,.52s.28.75.14,1.12l-12.67,32.62c-.25.68-.88,1.11-1.61,1.11h0c-.71,0-1.31-.41-1.58-1.06l-7.19-17.37c-.1-.24-.31-.32-.48-.32s-.38.08-.48.32l-7.19,17.37c-.27.65-.88,1.06-1.58,1.06s-1.36-.44-1.61-1.12L0,109.87"/><path class="cls-2" d="m108.05,143.06c-1.02,0-1.99-.49-2.59-1.32l-7.9-10.86-.04,8.97c0,1.76-1.44,3.2-3.2,3.2h-2.32c-.67,0-1.22-.55-1.22-1.22v-32.41c0-.67.55-1.22,1.22-1.22h2.32c1.76,0,3.2,1.44,3.2,3.2v17.56l6.98-8.26c.61-.73,1.5-1.14,2.45-1.14h3.92c.48,0,.9.27,1.1.7.2.44.13.93-.18,1.3l-6.76,7.97c-.23.27-.24.66-.03.95l7.75,10.63c.27.37.31.86.1,1.27s-.62.66-1.08.66h-3.71Z"/><path class="cls-2" d="m169.29,143.06c-1.76,0-3.2-1.44-3.2-3.2v-8.63c0-2.55-1.13-5.54-4.33-5.54s-4.33,2.98-4.33,5.54v8.63c0,1.76-1.44,3.2-3.2,3.2h-2.34c-.67,0-1.22-.55-1.22-1.22v-10.61c0-7.12,4.66-12.29,11.09-12.29s11.09,5.17,11.09,12.29v10.61c0,.67-.55,1.22-1.22,1.22h-2.34Z"/><path class="cls-2" d="m185.1,153.56c-1.76,0-3.2-1.44-3.2-3.2v-2.32c0-.67.55-1.22,1.22-1.22h4.1c3.01,0,3.91-2.56,4.18-4.02-1.3.54-2.71.81-4.18.81-6.41,0-11.06-5.16-11.06-12.26v-10.53c0-.67.55-1.22,1.22-1.22h2.32c1.76,0,3.2,1.44,3.2,3.2v8.55c0,2.55,1.13,5.52,4.32,5.52s4.32-2.97,4.32-5.52v-8.55c0-1.76,1.44-3.2,3.2-3.2h2.32c.67,0,1.22.55,1.22,1.22v20.47c0,7.1-4.65,12.26-11.06,12.26h-2.12Z"/><path class="cls-2" d="m72.87,143.06c-.67,0-1.22-.55-1.22-1.22v-10.48c0-7.1,4.65-12.26,11.06-12.26h3.11c.67,0,1.22.55,1.22,1.22v2.32c0,1.76-1.44,3.2-3.2,3.2h-1.12c-3.19,0-4.32,2.97-4.32,5.52v8.5c0,1.76-1.44,3.2-3.2,3.2h-2.32Z"/><path class="cls-2" d="m55.72,143.68c-6.77,0-12.28-5.51-12.28-12.28s5.51-12.28,12.28-12.28,12.28,5.51,12.28,12.28-5.51,12.28-12.28,12.28Zm0-17.96c-3.13,0-5.68,2.55-5.68,5.68s2.55,5.68,5.68,5.68,5.68-2.55,5.68-5.68-2.55-5.68-5.68-5.68Z"/><path class="cls-2" d="m144.26,143.05c-1.18,0-2.24-.7-2.71-1.77l-1.35-3.15h-13.76l-1.35,3.15c-.47,1.08-1.53,1.78-2.71,1.78h-3.39c-.33,0-.63-.16-.81-.44-.18-.28-.21-.61-.08-.92l13.87-33.13c.24-.55.75-.88,1.34-.88s1.11.34,1.34.88l13.87,33.14c.13.3.1.63-.08.91-.18.28-.48.44-.81.44h-3.39Zm-6.58-10.83l-3.65-8.51c-.12-.28-.39-.46-.7-.46s-.58.18-.71.46l-3.64,8.51h8.7Z"/><g><path class="cls-1" d="m227.56,138.75h-9.1v-18.46c0-.59-.48-1.06-1.06-1.06h-3.84v23.95h15.08v-3.36c0-.59-.48-1.06-1.06-1.06Z"/><path class="cls-1" d="m243,118.81c-.49,0-.94.29-1.14.75l-10.37,23.63h4.56c.43,0,.81-.25.98-.65l1.05-2.47h9.8l1.07,2.48c.17.39.55.64.98.64h4.56l-10.34-23.63c-.2-.45-.65-.75-1.14-.75Zm-3.17,17.24l3.15-8.06,3.15,8.06h-6.31Z"/><path class="cls-1" d="m274.78,132.47c-.74-1.02-1.78-1.76-3.13-2.23,1.18-1.15,1.77-2.59,1.77-4.32,0-1.97-.71-3.58-2.13-4.82-1.42-1.24-3.24-1.86-5.46-1.86h-8.49v23.95h10.66c2.31,0,4.2-.66,5.67-1.97,1.46-1.31,2.2-3,2.2-5.07,0-1.44-.37-2.67-1.11-3.68Zm-12.71-9.02h3.35c1,0,1.76.24,2.3.72.53.48.8,1.14.8,1.99s-.27,1.51-.81,2.01c-.54.5-1.3.75-2.29.75h-3.35v-5.47Zm8.1,14.72c-.6.53-1.44.8-2.52.8h-5.58v-6.02h5.58c1.06,0,1.9.27,2.51.81.61.54.91,1.28.91,2.2s-.3,1.68-.9,2.21Z"/></g></g></g></g></svg>