<svg width="30" height="24" viewBox="0 0 30 24" fill="none" xmlns="http://www.w3.org/2000/svg">
<path d="M29.9478 2.8509C28.8614 3.31954 27.6791 3.65682 26.4614 3.78818C27.7257 3.03706 28.6725 1.85043 29.1241 0.450902C27.9377 1.15666 26.638 1.65155 25.2827 1.91362C24.7162 1.30804 24.0311 0.825599 23.27 0.496372C22.5089 0.167145 21.6882 -0.00181698 20.859 1.47351e-05C17.504 1.47351e-05 14.8058 2.71954 14.8058 6.05682C14.8058 6.52545 14.8626 6.99409 14.9549 7.44498C9.9312 7.18226 5.45073 4.78226 2.47203 1.10771C1.92928 2.03474 1.64486 3.09028 1.64836 4.16451C1.64836 6.26628 2.717 8.11954 4.34659 9.20948C3.38625 9.17166 2.4484 8.90769 1.60931 8.43906V8.51362C1.60931 11.4568 3.68978 13.8959 6.46256 14.4568C5.94194 14.592 5.40637 14.6612 4.86848 14.6627C4.4744 14.6627 4.10162 14.6237 3.72529 14.5704C4.49215 16.9704 6.72528 18.7136 9.38445 18.7704C7.30398 20.4 4.69807 21.3586 1.86848 21.3586C1.36079 21.3586 0.892152 21.3408 0.405762 21.284C3.08978 23.0059 6.2744 24 9.70398 24C20.8377 24 26.93 14.7763 26.93 6.77043C26.93 6.5077 26.93 6.24498 26.9123 5.98226C28.0909 5.11954 29.1241 4.0509 29.9478 2.8509Z" fill="#1EA1F1"/>
</svg>
