<svg width="234" height="48" viewBox="0 0 234 48" fill="none" xmlns="http://www.w3.org/2000/svg">
<path d="M36.4723 38.1109H49.3383L42.9033 26.974L36.4723 38.1109Z" fill="#001414"/>
<path d="M54.6938 38.1108H63.2698L46.1178 8.41675L41.8278 15.8413L54.6938 38.1108Z" fill="#001414"/>
<path d="M40.7636 8.41675H27.8976L34.3286 19.5495L40.7636 8.41675Z" fill="#00A497"/>
<path d="M31.118 38.1108L35.408 30.6864L22.542 8.41675H13.9659L31.118 38.1108Z" fill="#00A497"/>
<path d="M21.4422 30.6864L8.57605 8.41675H0L17.152 38.1108L21.4422 30.6864Z" fill="#00A497"/>
<path d="M95.5559 37.7537C94.968 37.7537 94.4675 37.4161 94.241 36.8762L88.2867 22.4877C88.2072 22.2932 88.0286 22.2217 87.8894 22.2217C87.7505 22.2217 87.5717 22.2932 87.4923 22.4877L81.5339 36.8762C81.3115 37.4161 80.807 37.7537 80.219 37.7537C79.6311 37.7537 79.0948 37.3923 78.8844 36.8285L68.3818 9.81446C68.2665 9.5008 68.3103 9.15538 68.497 8.8854C68.6838 8.61542 68.9975 8.45264 69.3272 8.45264H71.7742C72.9101 8.45264 73.9231 9.17524 74.2924 10.2512L79.8338 24.7667C79.9092 24.989 80.096 25.0645 80.2469 25.0645C80.4177 25.0645 80.5646 24.9692 80.64 24.8143L86.5984 12.3714C86.8328 11.8671 87.3254 11.5495 87.8894 11.5495C88.4536 11.5495 88.9461 11.8671 89.1804 12.3714L95.1388 24.8104C95.2143 24.9692 95.3612 25.0645 95.532 25.0645C95.6829 25.0645 95.8696 24.989 95.9411 24.7706L101.486 10.2433C101.852 9.17524 102.865 8.45264 104.001 8.45264H106.448C106.777 8.45264 107.087 8.61542 107.278 8.8854C107.469 9.15538 107.512 9.50477 107.393 9.81446L96.8905 36.8325C96.68 37.3923 96.1597 37.7537 95.5559 37.7537Z" fill="#001414"/>
<path d="M157.927 37.309C157.081 37.309 156.279 36.9 155.782 36.2172L149.232 27.2245L149.196 34.6568C149.196 36.1179 148.005 37.309 146.543 37.309H144.616C144.06 37.309 143.607 36.8563 143.607 36.3006V9.45719C143.607 8.90135 144.06 8.44873 144.616 8.44873H146.543C148.005 8.44873 149.196 9.63586 149.196 11.1009V25.6443L154.98 18.8033C155.484 18.1999 156.227 17.8544 157.01 17.8544H160.258C160.656 17.8544 161.006 18.0768 161.172 18.4381C161.339 18.7994 161.283 19.2083 161.025 19.514L155.421 26.1168C155.23 26.343 155.218 26.6646 155.393 26.9029L161.817 35.7049C162.043 36.0146 162.074 36.4157 161.899 36.7531C161.724 37.0907 161.384 37.3051 161.002 37.3051H157.927V37.309Z" fill="#001414"/>
<path d="M208.682 37.3091C207.219 37.3091 206.028 36.1219 206.028 34.6568V27.5103C206.028 25.3942 205.086 22.9246 202.437 22.9246C199.787 22.9246 198.846 25.3942 198.846 27.5103V34.6568C198.846 36.1179 197.654 37.3091 196.192 37.3091H194.253C193.698 37.3091 193.244 36.8564 193.244 36.3006V27.5103C193.244 21.6104 197.109 17.3264 202.437 17.3264C207.763 17.3264 211.628 21.6104 211.628 27.5103V36.3006C211.628 36.8564 211.176 37.3091 210.619 37.3091H208.682Z" fill="#001414"/>
<path d="M221.776 45.9998C220.315 45.9998 219.124 44.8128 219.124 43.3478V41.4221C219.124 40.8662 219.576 40.4137 220.132 40.4137H223.529C226.026 40.4137 226.775 38.2934 226.996 37.0825C225.917 37.5312 224.751 37.7575 223.529 37.7575C218.219 37.7575 214.365 33.4853 214.365 27.6013V18.8865C214.365 18.3307 214.818 17.8781 215.374 17.8781H217.3C218.761 17.8781 219.954 19.0652 219.954 20.5302V27.6093C219.954 29.7176 220.891 32.1832 223.532 32.1832C226.175 32.1832 227.112 29.7216 227.112 27.6093V20.5302C227.112 19.0691 228.303 17.8781 229.766 17.8781H231.692C232.247 17.8781 232.701 18.3307 232.701 18.8865V35.8437C232.701 41.7279 228.847 45.9998 223.537 45.9998H221.784H221.776Z" fill="#001414"/>
<path d="M128.776 37.309C128.219 37.309 127.767 36.8564 127.767 36.3005V27.6175C127.767 21.7334 131.62 17.4613 136.931 17.4613H139.505C140.061 17.4613 140.514 17.9139 140.514 18.4698V20.3954C140.514 21.8564 139.322 23.0475 137.86 23.0475H136.931C134.289 23.0475 133.352 25.5091 133.352 27.6214V34.6608C133.352 36.1219 132.164 37.313 130.698 37.313H128.772L128.776 37.309Z" fill="#001414"/>
<path d="M114.559 37.8173C108.946 37.8173 104.382 33.2554 104.382 27.6453C104.382 22.0352 108.946 17.4733 114.559 17.4733C120.172 17.4733 124.736 22.0352 124.736 27.6453C124.736 33.2554 120.172 37.8173 114.559 37.8173ZM114.559 22.9444C111.965 22.9444 109.856 25.0526 109.856 27.6453C109.856 30.2379 111.965 32.3461 114.559 32.3461C117.153 32.3461 119.262 30.2379 119.262 27.6453C119.262 25.0526 117.153 22.9444 114.559 22.9444Z" fill="#001414"/>
<path d="M187.934 37.2931C186.961 37.2931 186.079 36.7174 185.689 35.8241L184.573 33.2155H173.173L172.057 35.8201C171.667 36.7134 170.79 37.2931 169.812 37.2931H167C166.726 37.2931 166.481 37.162 166.329 36.9318C166.178 36.7016 166.154 36.4235 166.266 36.1735L177.757 8.73054C177.951 8.27792 178.381 8 178.87 8C179.359 8 179.787 8.27792 179.981 8.72657L191.477 36.1775C191.584 36.4275 191.565 36.7016 191.414 36.9318C191.262 37.162 191.02 37.2931 190.742 37.2931H187.931H187.934ZM182.48 28.3241L179.457 21.2728C179.354 21.0386 179.131 20.8917 178.873 20.8917C178.615 20.8917 178.392 21.0386 178.289 21.2768L175.271 28.3281H182.48V28.3241Z" fill="#001414"/>
</svg>
