<svg width="20" height="24" viewBox="0 0 20 24" fill="none" xmlns="http://www.w3.org/2000/svg">
<path fill-rule="evenodd" clip-rule="evenodd" d="M7.68299 0.0886841C6.839 0.0886841 6.02958 0.423957 5.43279 1.02075C4.836 1.61754 4.50072 2.42696 4.50072 3.27095V5.54435H3.31846C2.47447 5.54435 1.66505 5.87962 1.06826 6.47641C0.471473 7.0732 0.1362 7.88262 0.1362 8.72661V20.729C0.1362 21.573 0.471473 22.3825 1.06826 22.9792C1.66505 23.576 2.47447 23.9113 3.31846 23.9113H12.0475C12.8915 23.9113 13.7009 23.576 14.2977 22.9792C14.8945 22.3825 15.2298 21.573 15.2298 20.729V19.5468H16.412C17.256 19.5468 18.0654 19.2115 18.6622 18.6147C19.259 18.0179 19.5943 17.2085 19.5943 16.3645V6.80839V6.80827C19.5942 6.38433 19.5095 5.96467 19.345 5.57394C19.1805 5.1833 18.9397 4.82944 18.6366 4.53314L18.6364 4.53295L15.0195 0.995694L15.0195 0.995629C14.425 0.414321 13.6265 0.0887876 12.7951 0.0886841H12.7949H7.68299ZM13.2298 19.5468H7.68299C6.839 19.5468 6.02958 19.2115 5.43279 18.6147C4.836 18.0179 4.50072 17.2085 4.50072 16.3645V7.54435H3.31846C3.00491 7.54435 2.70419 7.66891 2.48248 7.89062C2.26076 8.11234 2.1362 8.41305 2.1362 8.72661V20.729C2.1362 21.0426 2.26076 21.3433 2.48248 21.565C2.70419 21.7867 3.00491 21.9113 3.31846 21.9113H12.0475C12.3611 21.9113 12.6618 21.7867 12.8835 21.565C13.1052 21.3433 13.2298 21.0426 13.2298 20.729V19.5468ZM6.50072 6.54435V16.3645C6.50072 16.6781 6.62528 16.9788 6.847 17.2005C7.06872 17.4222 7.36943 17.5468 7.68299 17.5468H16.412C16.7256 17.5468 17.0263 17.4222 17.248 17.2005C17.4697 16.9788 17.5943 16.6781 17.5943 16.3645V6.80851V6.80839C17.5943 6.65093 17.5628 6.49507 17.5017 6.34994C17.4406 6.20478 17.3511 6.07329 17.2384 5.9632L17.2382 5.96301L13.6212 2.42563L13.6211 2.42556C13.4003 2.20967 13.1038 2.08875 12.7949 2.08868H12.7948H7.68299C7.36943 2.08868 7.06872 2.21324 6.847 2.43496C6.62528 2.65668 6.50072 2.95739 6.50072 3.27095V6.54435Z" fill="#999999"/>
</svg>
