<?xml version="1.0" standalone="no"?>
<!DOCTYPE svg PUBLIC "-//W3C//DTD SVG 20010904//EN"
 "http://www.w3.org/TR/2001/REC-SVG-20010904/DTD/svg10.dtd">
<svg version="1.0" xmlns="http://www.w3.org/2000/svg"
 width="32.000000pt" height="32.000000pt" viewBox="0 0 32.000000 32.000000"
 preserveAspectRatio="xMidYMid meet">

<g transform="translate(0.000000,32.000000) scale(0.100000,-0.100000)"
fill="#E60023" stroke="none">
<path d="M92 304 c-100 -51 -121 -191 -41 -259 17 -14 34 -25 38 -25 8 0 24
80 26 130 1 31 12 50 30 50 21 0 25 -14 15 -51 -8 -26 -7 -37 5 -48 13 -13 17
-12 34 4 26 22 36 76 22 104 -7 11 -23 24 -36 27 -58 15 -121 -47 -96 -94 15
-28 -7 -42 -26 -17 -32 45 3 118 66 135 53 14 85 5 117 -33 22 -26 25 -37 19
-71 -10 -64 -56 -102 -102 -85 -17 6 -23 4 -27 -9 -2 -9 -7 -27 -11 -39 -6
-21 -3 -23 30 -23 116 0 198 123 150 224 -38 80 -139 118 -213 80z"/>
</g>
</svg>
