<svg width="25" height="24" viewBox="0 0 25 24" fill="none" xmlns="http://www.w3.org/2000/svg">
<path d="M21.4178 0C22.354 0 23.2518 0.37191 23.9138 1.03391C24.5758 1.69592 24.9478 2.59379 24.9478 3.53V20.47C24.9478 21.4062 24.5758 22.3041 23.9138 22.9661C23.2518 23.6281 22.354 24 21.4178 24H4.47775C3.54154 24 2.64367 23.6281 1.98167 22.9661C1.31966 22.3041 0.947754 21.4062 0.947754 20.47L0.947754 3.53C0.947754 2.59379 1.31966 1.69592 1.98167 1.03391C2.64367 0.37191 3.54154 0 4.47775 0L21.4178 0ZM17.7128 14.47C17.3383 14.47 16.9791 14.6188 16.7143 14.8836C16.4495 15.1484 16.3008 15.5075 16.3008 15.882C16.3008 16.2565 16.4495 16.6156 16.7143 16.8804C16.9791 17.1452 17.3383 17.294 17.7128 17.294C18.4928 17.294 19.1228 16.649 19.1228 15.869C19.1228 15.089 18.4928 14.459 17.7128 14.459V14.47ZM9.55775 17.247C10.7578 17.247 11.6138 17.205 12.1378 17.127C12.6638 17.043 13.1138 16.905 13.4578 16.715C13.9078 16.483 14.2378 16.151 14.4778 15.725C14.7178 15.299 14.8378 14.81 14.8378 14.245C14.8378 13.465 14.6278 12.842 14.2078 12.375C13.7878 11.895 13.2178 11.641 12.4678 11.581C13.1278 11.401 13.6238 11.131 13.9238 10.771C14.2388 10.427 14.3888 9.947 14.3888 9.347C14.3888 8.867 14.2858 8.462 14.0888 8.087C13.8779 7.72299 13.5729 7.42247 13.2058 7.217C12.8608 7.022 12.4708 6.902 11.9908 6.812C11.5268 6.738 10.7008 6.692 9.51675 6.692H6.60175V17.178H9.55775V17.247ZM10.2938 13.062C10.9988 13.062 11.4788 13.15 11.7338 13.324C12.0038 13.504 12.1238 13.819 12.1238 14.254C12.1238 14.659 11.9888 14.944 11.7038 15.109C11.4338 15.289 10.9388 15.363 10.2638 15.363H9.25775V13.066H10.3078L10.2938 13.062ZM18.9498 13.768V6.708H16.4898V13.768H18.9478H18.9498ZM9.87275 9.08C10.5828 9.08 11.0578 9.16 11.3048 9.32C11.5498 9.48 11.6718 9.755 11.6718 10.15C11.6718 10.53 11.5418 10.796 11.2818 10.954C11.0168 11.108 10.5348 11.186 9.82975 11.186H9.25975V9.08H9.87475H9.87275Z" fill="#2A6FBD"/>
</svg>
