<svg width="27" height="24" viewBox="0 0 27 24" fill="none" xmlns="http://www.w3.org/2000/svg">
<path d="M13.542 0C20.4861 0 26.1362 4.58429 26.1362 10.2202C26.1362 12.4761 25.2625 14.507 23.4363 16.5079C20.7947 19.5494 14.8864 23.2536 13.542 23.8204C12.2353 24.3714 12.3865 23.5103 12.4463 23.1702L12.451 23.1419L12.6305 22.0635C12.673 21.7423 12.717 21.2433 12.5895 20.9253C12.4478 20.5742 11.8906 20.3916 11.4812 20.3035C5.42815 19.5053 0.947754 15.2721 0.947754 10.2202C0.947754 4.58429 6.59941 0 13.542 0ZM8.85377 12.0999H6.453V7.74229C6.453 7.67743 6.42734 7.6152 6.38163 7.56919C6.33591 7.52318 6.27385 7.49712 6.20899 7.49671H5.32424C5.29199 7.49671 5.26006 7.50306 5.23026 7.5154C5.20047 7.52774 5.17339 7.54583 5.15059 7.56864C5.12778 7.59144 5.10969 7.61852 5.09735 7.64831C5.08501 7.67811 5.07866 7.71004 5.07866 7.74229V13.2302C5.07866 13.2948 5.10542 13.3562 5.14792 13.3987V13.4002L5.15107 13.4034L5.15422 13.4065C5.19988 13.4505 5.2609 13.4748 5.32424 13.4742H8.85377C8.98916 13.4742 9.09779 13.364 9.09779 13.2287V12.3471C9.09799 12.3148 9.09185 12.2828 9.0797 12.253C9.06754 12.2231 9.04963 12.1959 9.02697 12.1729C9.00431 12.15 8.97735 12.1317 8.94764 12.1192C8.91792 12.1067 8.88602 12.1001 8.85377 12.0999ZM10.099 7.49671C10.0339 7.49671 9.97143 7.52258 9.92537 7.56864C9.87931 7.6147 9.85344 7.67716 9.85344 7.74229V13.2302C9.85344 13.3656 9.96364 13.4742 10.099 13.4742H10.9838C11.1192 13.4742 11.2278 13.364 11.2278 13.2302V7.74229C11.2278 7.67743 11.2021 7.6152 11.1564 7.56919C11.1107 7.52318 11.0486 7.49712 10.9838 7.49671H10.099ZM16.1805 7.49671C16.1153 7.49671 16.0529 7.52258 16.0068 7.56864C15.9607 7.6147 15.9349 7.67716 15.9349 7.74229V11.001L13.4208 7.60691C13.4144 7.59864 13.4076 7.59076 13.4003 7.58329V7.58172C13.3953 7.57621 13.3901 7.57095 13.3845 7.56598L13.3798 7.56125C13.3744 7.55609 13.3686 7.55135 13.3625 7.54708H13.3609L13.3531 7.54079L13.3483 7.53764C13.3459 7.5358 13.3432 7.53422 13.3405 7.53292L13.3279 7.52504H13.3247L13.32 7.5219L13.3043 7.5156L13.298 7.51245C13.2928 7.51058 13.2875 7.50901 13.2822 7.50773H13.2791L13.2743 7.50615L13.2602 7.503H13.2507L13.246 7.50143H13.2397L13.2366 7.49986H12.3329C12.2681 7.49985 12.2058 7.52551 12.1598 7.57123C12.1138 7.61695 12.0878 7.67901 12.0873 7.74387V13.2318C12.0873 13.3672 12.1975 13.4758 12.3329 13.4758H13.2145C13.3515 13.4758 13.4617 13.3656 13.4617 13.2318V9.97305L15.9805 13.3735C15.9973 13.3969 16.0181 13.4172 16.0419 13.4333L16.0435 13.4349L16.0592 13.4443L16.0655 13.4475C16.0696 13.4499 16.0738 13.452 16.0781 13.4538L16.0892 13.4585L16.097 13.4616C16.1022 13.4634 16.1075 13.465 16.1128 13.4664H16.1175C16.138 13.4723 16.1591 13.4754 16.1805 13.4758H17.0621C17.199 13.4758 17.3092 13.3656 17.3092 13.2318V7.74229C17.3092 7.67716 17.2833 7.6147 17.2373 7.56864C17.1912 7.52258 17.1288 7.49671 17.0636 7.49671H16.1805ZM22.1863 8.62546V7.74387C22.1865 7.71162 22.1804 7.67964 22.1682 7.64977C22.1561 7.61989 22.1382 7.5927 22.1155 7.56975C22.0928 7.5468 22.0659 7.52854 22.0362 7.516C22.0065 7.50347 21.9746 7.49691 21.9423 7.49671H18.4128C18.3493 7.49678 18.2883 7.52163 18.2428 7.56598H18.2412L18.2396 7.56912L18.2365 7.57385C18.1925 7.61895 18.1677 7.67931 18.1672 7.74229V13.2302C18.1672 13.2948 18.194 13.3562 18.2365 13.3987L18.2396 13.4034L18.2428 13.4065C18.2885 13.4503 18.3495 13.4746 18.4128 13.4742H21.9423C22.0777 13.4742 22.1863 13.364 22.1863 13.2287V12.3471C22.1865 12.3148 22.1804 12.2828 22.1682 12.253C22.1561 12.2231 22.1382 12.1959 22.1155 12.1729C22.0928 12.15 22.0659 12.1317 22.0362 12.1192C22.0065 12.1067 21.9746 12.1001 21.9423 12.0999H19.54V11.1726H21.9407C22.0761 11.1726 22.1848 11.0624 22.1848 10.9271V10.0455C22.185 10.0132 22.1788 9.98123 22.1667 9.95136C22.1545 9.92148 22.1366 9.89429 22.1139 9.87134C22.0913 9.84839 22.0643 9.83013 22.0346 9.8176C22.0049 9.80506 21.973 9.79851 21.9407 9.7983H19.54V8.87105H21.9407C22.0761 8.87105 22.1848 8.76085 22.1848 8.62546H22.1863Z" fill="#01C300"/>
</svg>
