<svg width="15" height="15" viewBox="0 0 15 15" fill="none" xmlns="http://www.w3.org/2000/svg">
<g clip-path="url(#clip0_1_3441)">
<path d="M12.8034 2.19666C12.107 1.50022 11.2801 0.947775 10.3702 0.570872C9.46023 0.193969 8.48494 -1.37014e-05 7.50002 7.25845e-10C6.51509 1.37028e-05 5.53981 0.194023 4.62986 0.570952C3.71992 0.94788 2.89312 1.50035 2.19668 2.1968C1.50024 2.89326 0.947803 3.72008 0.570901 4.63004C0.193999 5.54 1.68015e-05 6.51529 3.05183e-05 7.50021C4.42351e-05 8.48514 0.194053 9.46042 0.570981 10.3704C0.947908 11.2803 1.50037 12.1071 2.19683 12.8036C3.60339 14.2101 5.51108 15.0002 7.50023 15.0002C9.48937 15.0002 11.397 14.21 12.8036 12.8034C14.2101 11.3968 15.0002 9.48916 15.0002 7.5C15.0002 5.51085 14.21 3.60318 12.8034 2.19666ZM12.1768 12.177C11.5638 12.7961 10.8344 13.288 10.0306 13.6245C9.22686 13.9609 8.36455 14.1351 7.49323 14.1373C6.62191 14.1394 5.75875 13.9694 4.95334 13.6369C4.14793 13.3045 3.41615 12.8162 2.80003 12.2001C2.18391 11.5839 1.6956 10.8522 1.36315 10.0467C1.0307 9.24134 0.860661 8.37818 0.862806 7.50685C0.86495 6.63553 1.03923 5.77321 1.37565 4.96945C1.71206 4.16569 2.20396 3.43631 2.82311 2.82323C3.43619 2.20409 4.16556 1.71218 4.96932 1.37577C5.77308 1.03935 6.63539 0.86507 7.50672 0.862925C8.37804 0.860781 9.2412 1.03082 10.0466 1.36327C10.852 1.69572 11.5838 2.18403 12.1999 2.80015C12.816 3.41627 13.6368 4.95347 13.6368 4.95347C13.6368 4.95347 14.1393 6.62204 14.1371 7.49337C14.135 8.36469 13.9607 9.227 13.6243 10.0308C13.2879 10.8345 12.796 11.5639 12.1768 12.177Z" fill="#999999"/>
<path d="M10.9589 3.96558C10.7941 3.81794 10.5239 3.85397 10.3556 4.04353L7.97893 6.58289C7.82683 6.50017 7.65592 6.4582 7.4828 6.46105C7.30968 6.46389 7.14024 6.51146 6.99094 6.59913L5.4372 5.51725C5.23671 5.36961 4.93523 5.43782 4.76633 5.66931C4.59743 5.90081 4.62165 6.2076 4.82273 6.35524L6.47302 7.62816C6.50392 7.89149 6.6345 8.13298 6.83794 8.30301C7.04138 8.47304 7.30221 8.55869 7.56684 8.54236C7.83148 8.52603 8.0798 8.40895 8.26079 8.2152C8.44177 8.02145 8.54167 7.76573 8.53995 7.5006C8.53995 7.47846 8.53493 7.45779 8.53346 7.43564L10.9521 4.57473C11.1207 4.38457 11.1233 4.11174 10.9589 3.96558Z" fill="#999999"/>
</g>
<defs>
<clipPath id="clip0_1_3441">
<rect width="15" height="15" fill="white"/>
</clipPath>
</defs>
</svg>
