<svg width="30" height="37" viewBox="0 0 30 37" fill="none" xmlns="http://www.w3.org/2000/svg">
<path d="M3.83 26.64V27.47H1.67V26.64H3.83ZM1.67 28.9V28.02H3.83V28.9H1.67ZM4.54 29.47V26.06H0.93V34.77H1.67V29.47H4.54ZM7.54 31.23V30.61H5.99V29.72H5.31V30.61H2.5V31.23H5.03C4.35 32.11 3.23 32.94 2.23 33.35C2.37 33.48 2.58 33.72 2.7 33.89C3.6 33.45 4.61 32.66 5.31 31.8V33.73C5.31 33.84 5.27 33.87 5.16 33.88C5.04 33.88 4.65 33.89 4.23 33.87C4.32 34.05 4.42 34.31 4.46 34.49C5.05 34.49 5.43 34.49 5.68 34.38C5.92 34.27 5.99 34.09 5.99 33.74V31.23H7.54ZM6.14 28.91V28.02H8.38V28.91H6.14ZM8.38 26.64V27.47H6.14V26.64H8.38ZM9.13 26.06H5.43V29.48H8.38V33.76C8.38 33.95 8.32 34.01 8.14 34.01C7.94 34.02 7.29 34.03 6.63 34C6.74 34.2 6.86 34.55 6.89 34.76C7.77 34.76 8.34 34.75 8.67 34.63C9.01 34.5 9.13 34.26 9.13 33.76V26.06ZM16.04 27.1L15.47 27.34C15.8 27.8 16.15 28.43 16.41 28.96L17 28.69C16.76 28.21 16.29 27.46 16.04 27.1ZM17.33 26.59L16.77 26.85C17.11 27.29 17.48 27.91 17.74 28.43L18.32 28.15C18.08 27.69 17.6 26.94 17.33 26.59ZM13.27 26.28L12.26 26.27C12.32 26.56 12.35 26.92 12.35 27.29C12.35 28.33 12.24 30.87 12.24 32.35C12.24 33.98 13.24 34.58 14.68 34.58C16.87 34.58 18.16 33.32 18.85 32.37L18.28 31.69C17.57 32.73 16.53 33.76 14.7 33.76C13.75 33.76 13.06 33.37 13.06 32.27C13.06 30.78 13.14 28.41 13.18 27.29C13.19 26.96 13.22 26.61 13.27 26.28ZM23.66 32.95C23.66 32.6 24.01 32.31 24.46 32.31C25.22 32.31 25.72 32.88 25.8 33.67C25.55 33.71 25.28 33.73 24.99 33.73C24.21 33.73 23.66 33.43 23.66 32.95ZM22.38 26.63L22.41 27.46C22.62 27.43 22.85 27.41 23.07 27.4C23.6 27.37 25.6 27.28 26.13 27.26C25.62 27.71 24.37 28.76 23.81 29.22C23.23 29.71 21.95 30.78 21.12 31.46L21.69 32.05C22.96 30.76 23.85 30.05 25.52 30.05C26.82 30.05 27.76 30.79 27.76 31.77C27.76 32.59 27.31 33.17 26.51 33.48C26.39 32.53 25.72 31.71 24.47 31.71C23.54 31.71 22.93 32.32 22.93 33.01C22.93 33.84 23.76 34.43 25.12 34.43C27.24 34.43 28.56 33.39 28.56 31.78C28.56 30.43 27.37 29.43 25.71 29.43C25.26 29.43 24.78 29.48 24.32 29.64C25.1 28.99 26.46 27.83 26.96 27.45C27.14 27.3 27.34 27.17 27.52 27.04L27.06 26.46C26.96 26.49 26.82 26.52 26.52 26.54C25.99 26.59 23.61 26.67 23.09 26.67C22.89 26.67 22.61 26.66 22.38 26.63Z" fill="#FEFEFE"/>
<line x1="22.9712" y1="2.33302" x2="8.33364" y2="16.9706" stroke="#FEFEFE" stroke-width="3.29938" stroke-linecap="round"/>
<line x1="22.2871" y1="17" x2="7.64955" y2="2.36245" stroke="#FEFEFE" stroke-width="3.29938" stroke-linecap="round"/>
</svg>
